<svg width="27" height="27" viewBox="0 0 27 27" fill="none" xmlns="http://www.w3.org/2000/svg">
<path d="M24.1072 8.67859L2.89287 8.67859C2.35962 8.67859 1.92859 9.10962 1.92859 9.64287L1.92859 12.5357C1.92859 17.8528 6.25437 22.1786 11.5714 22.1786C15.5163 22.1786 18.9116 19.7939 20.4033 16.3929L22.1786 16.3929C23.7735 16.3929 25.0714 15.0949 25.0714 13.5L25.0714 9.64287C25.0714 9.10962 24.6404 8.67859 24.1072 8.67859ZM23.1429 13.5C23.1429 14.0323 22.7109 14.4643 22.1786 14.4643H21.0195C21.1468 13.8414 21.2143 13.1963 21.2143 12.5357L21.2143 10.6072L23.1429 10.6072L23.1429 13.5Z" fill="#171A1F"/>
<path d="M20.25 23.1429L2.89287 23.1429C2.35962 23.1429 1.92859 23.5739 1.92859 24.1072C1.92859 24.6404 2.35962 25.0715 2.89287 25.0715L20.25 25.0715C20.7833 25.0715 21.2143 24.6404 21.2143 24.1072C21.2143 23.5739 20.7833 23.1429 20.25 23.1429Z" fill="#171A1F"/>
<path d="M7.71428 2.89288L5.78571 2.89288L5.78571 6.75003L7.71428 6.75003L7.71428 2.89288Z" fill="#171A1F"/>
<path d="M12.5357 1.92859L10.6071 1.92859L10.6071 5.78573L12.5357 5.78573L12.5357 1.92859Z" fill="#171A1F"/>
<path d="M17.3572 2.89288L15.4286 2.89288L15.4286 6.75003L17.3572 6.75003L17.3572 2.89288Z" fill="#171A1F"/>
</svg>
