<svg width="27" height="27" viewBox="0 0 27 27" fill="none" xmlns="http://www.w3.org/2000/svg">
<path d="M25.0714 6.36428C24.2036 6.74999 23.3357 7.03928 22.3714 7.13571C23.3357 6.55714 24.1072 5.59285 24.4929 4.53214C23.5286 5.11071 22.5643 5.49642 21.5036 5.68928C20.6357 4.72499 19.3822 4.14642 18.0322 4.14642C15.4286 4.14642 13.3072 6.26785 13.3072 8.87142C13.3072 9.25714 13.3072 9.64285 13.4036 9.93214C9.35359 9.73928 5.88216 7.81071 3.56787 4.91785C3.08573 5.68928 2.89287 6.46071 2.89287 7.32857C2.89287 8.96785 3.76073 10.4143 5.0143 11.2821C4.24287 11.2821 3.47145 11.0893 2.89287 10.7036C2.89287 10.7036 2.89287 10.7036 2.89287 10.8C2.89287 13.1143 4.53216 15.0429 6.65359 15.4286C6.26787 15.525 5.88216 15.6214 5.40002 15.6214C5.11073 15.6214 4.82145 15.6214 4.53216 15.525C5.11073 17.4536 6.84645 18.8036 8.96787 18.8036C7.32859 20.0571 5.30359 20.8286 3.08573 20.8286C2.70002 20.8286 2.3143 20.8286 1.92859 20.7321C4.05002 22.0821 6.55716 22.8536 9.16073 22.8536C17.9357 22.8536 22.6607 15.6214 22.6607 9.35357C22.6607 9.16071 22.6607 8.96785 22.6607 8.77499C23.625 8.09999 24.3964 7.23214 25.0714 6.36428Z" fill="#171A1F"/>
</svg>
